<svg id="Vektor" xmlns="http://www.w3.org/2000/svg" viewBox="0 0 460.7702 456.9285" width="50" height="50"><defs><style>.cls-1,.cls-2{stroke:#000;stroke-miterlimit:10;}.cls-1{stroke-width:9px;}.cls-2{stroke-width:2px;}.cls-3{fill:#fff;}.cls-4{fill:#d7d7d8;}.cls-5{fill:#6f6f73;}.cls-6{fill:#555559;}.cls-7{fill:#26aad8;}.cls-8{fill:#21262b;}.cls-9{fill:#30363c;}.cls-10{fill:#202020;}</style></defs><g id="Gear"><path class="cls-1" d="M625.1743,533.6921A125.1743,125.1743,0,1,1,500,408.5178,125.1743,125.1743,0,0,1,625.1743,533.6921ZM500,352.7448A180.9474,180.9474,0,1,0,680.9474,533.6921,180.9474,180.9474,0,0,0,500,352.7448Z" transform="translate(-269.2379 -307.6544)"/><polygon class="cls-2" points="100.1 351.212 93.288 409.872 118.631 427.161 167.915 395.77 100.1 351.212"/><polygon class="cls-2" points="53.307 261.403 16.044 307.216 28.127 335.415 86.56 335.421 53.307 261.403"/><polygon class="cls-2" points="62.096 160.517 6.053 179.134 1.093 209.409 50.372 240.81 62.096 160.517"/><polygon class="cls-2" points="123.715 80.154 66.447 65.743 45.997 88.611 70.686 141.572 123.715 80.154"/><polygon class="cls-2" points="218.864 45.484 178.307 2.56 148.773 10.859 141.139 68.791 218.864 45.484"/><polygon class="cls-2" points="319.872 68.556 309.514 10.417 280.268 1.152 242.102 45.399 319.872 68.556"/><polygon class="cls-2" points="391.201 142.368 414.135 87.949 394.635 64.266 338.541 80.633 391.201 142.368"/><polygon class="cls-2" points="410.942 242.663 459.707 209.356 456.152 178.884 400.14 162.241 410.942 242.663"/><polygon class="cls-2" points="373.182 337.652 432.215 336.086 445.741 308.551 407.685 264.209 373.182 337.652"/><polygon class="cls-2" points="289.971 397.021 340.433 427.696 366.723 411.884 358.769 353.995 289.971 397.021"/><polygon class="cls-2" points="187.865 401.824 213.652 454.951 244.315 455.908 269.001 402.946 187.865 401.824"/></g><g id="Wolf"><path class="cls-3" d="M499.0717,754.2741s-29.73-56.3418-47.0191-67.71c-.3552,2.7237-2.4868,20.8421-13.5,26.5263-.5921-1.7763-9.9473-28.3026-21.1973-37.8947-2.25-2.25-29.8027-23.6447-30.7895-71.6447-1.7763,1.1052-8.8816,8.8421-14.25,24.7894-1.4211,2.8421-3.4342,2.4079-3.4342,2.4079s-2.4474-1.1447-3.5132-4.9737-8.5263-15.3552-5.3289-75.1579c-3.6711.5922-26.2106,2.3685-33.9474-6.9473a9.7349,9.7349,0,0,1-1.8553-4.54s19.3421-18,23.3685-40.0263c6.1579-21.3158,6.3947-22.0263,19.1842-43.579-1.8948-8.7631-26.0527-72.3421,13.5-140.0263,2.8421,0,13.7368-4.2105,37.8947,19,2.1316.9474,17.6625,12.7894,80.84,13.5C498.9651,376.1823,499.0717,754.2741,499.0717,754.2741Z" transform="translate(-269.2379 -307.6544)"/><path class="cls-4" d="M498.9814,348.0074s58.9885-.2621,79.5107-13.8421c5.0514-4.4211,22.6128-20.6317,36.0528-18.6872,3.8493,5.38,41.8679,51.9031,15.36,139.9957,4.9746,6.8662,20.61,33.3844,26.4166,58.9572,2.2506,4.2619.4748,6.5118,18.24,24.86,1.3027,1.42-4.3786,14.4453-34.9293,11.2542-.4725,6.3935,6.1655,44.7136-11.8246,90.4973-1.1853-6.3143-3.5576-28.5726-15.6371-37.3318-.4723,7.104-2.1237,41.6763-22.0131,62.0444-5.446,4.9737-27.94,27.4733-29.357,49.0219-4.5006-4.9718-10.6588-9.47-15.3986-27.7022-6.1562,6.3946-35.0827,35.4863-46.3457,67.1992-.0036-10.9185-.0178-87.3252-.0329-170.9858C499.0029,472.0525,498.9814,348.0074,498.9814,348.0074Z" transform="translate(-269.2379 -307.6544)"/><path id="Ucho_PL" data-name="Ucho PL" class="cls-5" d="M366.79,455.5244s23.6842-30.8684,56.8421-47.921c3.1579-2.2105,15.1579-11.8421,21.3158-35.2105-11.2106-17.3685-35.3191-61.9342-64.6579-56.8948C377.3181,320.7948,339.79,377.6034,366.79,455.5244Z" transform="translate(-269.2379 -307.6544)"/><path id="Ucho_L" data-name="Ucho L" class="cls-3" d="M387.1579,328.1034s-31.2632,49.9737-17.0526,87.6316c1.6579,4.9737,3.7894,12.7894,8.5263,11.8421,3.0789-.2369,9,.296,2.9013-23.329-.5329-5.8618-.4145-14.8618-.4145-14.8618s5.625,12.2566,11.3684,11.96c-2.1907-11.6645-3.1381-16.6381-2.1907-28.5395,1.125.77,12.3157,30.9079,23.8026,29.9606,2.0131-.1185,17.9408,1.0065,7.2829-30.6119C413.6842,355.5771,408,343.38,387.1579,328.1034Z" transform="translate(-269.2379 -307.6544)"/><path class="cls-6" d="M553.58,370.0244s26.4868-56.7894,61.0066-54.5263c2.9781,4.1324,43.046,56.1053,15.3355,140.0263-4.6579-2.2894-29.8421-37.3421-52.3421-44.7631C561.3164,404.5244,550.1926,376.4235,553.58,370.0244Z" transform="translate(-269.2379 -307.6544)"/><path id="Oko_PL" data-name="Oko PL" d="M429.6085,479.9225A45.1343,45.1343,0,0,1,445.5953,492.83c3.6711.4737,20.1316,4.5,20.8421,8.6448C467.74,500.0541,470.1711,460.5088,429.6085,479.9225Z" transform="translate(-269.2379 -307.6544)"/><path id="Oko_L" data-name="Oko L" class="cls-7" d="M445.7884,474.7533s-5.9726,8.4027.8169,15.1922c.9473.7105,1.7,1.2632,1.7,1.2632s6.9055,3.5526,11.9582-1.7369c1.1842-1.7368,3.5535-6.9395.1207-10.9514C460.093,478.2761,455.5913,473.4826,445.7884,474.7533Z" transform="translate(-269.2379 -307.6544)"/><path id="Oko_PR" data-name="Oko PR" d="M531.4757,501.4752s1.7369-5.7665,16.1053-6.3981c2.5263-2.0527,3.6316-2.3684,5.6842-1.8948,1.2631-2.6842,5.3684-7.8947,15-12.7894-1.364-1.6564-16.1167-8.2895-26.5576-3.8628C535.2144,479.2831,530.3861,486.3128,531.4757,501.4752Z" transform="translate(-269.2379 -307.6544)"/><path id="Oko_R" data-name="Oko R" class="cls-7" d="M555.1331,475.4934s5.2374,17.6554-12.6048,16.8827c-5.8421,0-9.7361-10.4378-3.8989-14.0694C539.3075,477.8738,543.5953,473.5713,555.1331,475.4934Z" transform="translate(-269.2379 -307.6544)"/><path id="Vous_R" data-name="Vous R" class="cls-6" d="M578.5862,480.5705s39.73,28.7171,42.8092,80.8224c-1.8948-2.3685-8.2895-16.1053-25.3421-19.8948.71,4.5,3.7894,43.1053-8.0527,70.1053-4.9737,10.1842-17.2894,25.3421-20.8421,46.1842-2.3684-3.5526-9.3571-5.4474-11.31-25.3421-1.953,4.0263-16.8741,37.1842-37.953,56.6053-1.4211-6.6316-13.4211-34.9737-30.6316-45.079,4.5789.9474,39.9474,9.6316,56.8421-31.1053,2.3684-4.7368,3.1579-20.8421,2.2105-30.6315,2.3684-18.7895,13.7369-27.6316,13.7369-27.6316s16.421-8.5263,18.3158-45C578.3691,499.1823,579.9085,498.59,578.5862,480.5705Z" transform="translate(-269.2379 -307.6544)"/><path id="Vous_L" data-name="Vous L" class="cls-5" d="M470.8816,638.7218s-23.4474-21.4342-21.3158-50.3289c.2368-9.829-2.9605-24.3948-17.4079-39.5527-3.079-4.2631-10.0658-9.1184-12.1974-25.9342-3.3158,3.3158-5.2105,27-4.2631,39.4342C416.7632,574.5376,423.2368,617.84,470.8816,638.7218Z" transform="translate(-269.2379 -307.6544)"/><path id="Pusa_R" data-name="Pusa R" class="cls-8" d="M498.9948,628.507h9.9307a.0713.0713,0,0,1,.0326.0079l1.6911.8735a.0709.0709,0,0,0,.0242.0074l2.9462.3526a.0739.0739,0,0,0,.0133,0l4.3211-.2953,2.8991-.3119a.069.069,0,0,1,.0745.0958c-.41.8734-3.3716,6.7264-9.7274,8.26l-.0092.0019a25.7593,25.7593,0,0,1-6.8131-.0008h-.9486s-.415.2958-1.0671.71a6.48,6.48,0,0,1-2.1935.5324h-1.245v-10.162A.0711.0711,0,0,1,498.9948,628.507Z" transform="translate(-269.2379 -307.6544)"/><path id="Pusa_L" data-name="Pusa L" class="cls-9" d="M498.9371,628.5038c-.6076.0678-5.5007.5847-8.2187-.0254a16.4256,16.4256,0,0,1-3.73,1.0066h-9.0592s.8882,4.3815,8.7632,7.8158a47.067,47.067,0,0,0,6.6907.4736s1.5851,1.0718,5.6191.9676a.0692.0692,0,0,0,.07-.0665c-.0008-3.4191-.0643-9.4414-.0715-10.1167A.052.052,0,0,0,498.9371,628.5038Z" transform="translate(-269.2379 -307.6544)"/><path d="M498.8639,583.34s21.89-1.5789,26.1529,11.4474c1.7368,12.8684-8.4474,20.4474-8.4474,20.4474s-6.6728,3.4735-17.704,2.3684C498.8638,612.3929,498.8639,583.34,498.8639,583.34Z" transform="translate(-269.2379 -307.6544)"/><path class="cls-10" d="M499.008,583.34s-20.8208-2.1315-24.61,8.5263c-1.1842,2.0527-8.7632,11.8422,7.0263,23.0527,4.4211,1.8158,2.329,2.6052,17.5855,2.6842C499.0088,611.9981,499.008,583.34,499.008,583.34Z" transform="translate(-269.2379 -307.6544)"/><path class="cls-4" d="M608.1322,328.8139s-29.1316,25.9342-33.6316,42.5132c-5.754,22.7464-3.7894,31.7368,5.9211,31.0263,9.1172-.829,14.5658-2.4869,25.1052-29.4869,2.4869,13.8553-2.1315,27.9474-2.1315,27.829,3.0789-.4737,6.1579-2.4868,11.6052-9.829.5921,6.9869,1.54,15.9869-2.3684,23.9211-.8289,2.0132-3.671,10.1842,3.4342,13.2632,3.1974-.1185,9.5921-.5921,13.3816-23.4474C629.5664,385.1823,632.5269,365.6034,608.1322,328.8139Z" transform="translate(-269.2379 -307.6544)"/></g></svg>